<svg height="512pt" viewBox="0 -75 512 512" width="512pt" xmlns="http://www.w3.org/2000/svg"><path d="m433.054688 181.792969c-11.28125-11.5-27.171876-17.332031-47.230469-17.332031-14.742188 0-27.449219 3.234374-37.769531 9.605468-10.34375 6.394532-18 14.90625-22.757813 25.300782-4.695313 10.265624-7.078125 22.25-7.078125 35.617187 0 21.183594 5.722656 37.78125 17.011719 49.328125 11.300781 11.566406 25.25 17.429688 41.453125 17.429688 7.726562 0 15.558594-1.078126 23.273437-3.199219 3.253907-.894531 13.144531-3.613281 13.144531-10.984375 0-2.019532-.722656-4.085938-2.148437-6.132813-1.597656-2.308593-3.8125-3.527343-6.394531-3.527343-.542969 0-1.15625 0-9.171875 2.570312-4.835938 1.546875-10.203125 2.328125-15.957031 2.328125-7.652344 0-14.25-1.28125-19.617188-3.8125-5.28125-2.488281-9.414062-5.992187-12.289062-10.410156-2.980469-4.570313-5.191407-9.675781-6.566407-15.164063-1.390625-5.554687-2.097656-11.8125-2.097656-18.613281 0-7.28125.808594-13.972656 2.40625-19.886719 1.578125-5.851562 4.101563-11.332031 7.507813-16.289062 3.289062-4.792969 8.085937-8.550782 14.257812-11.175782 6.300781-2.679687 13.972656-4.039062 22.792969-4.039062 29.316406 0 43.570312 16.253906 43.570312 49.695312 0 11.066407-1.480469 24.257813-8.542969 24.257813-.824218 0-3.320312 0-4.359374-6.730469v-31.660156c0-8.824219-3.28125-15.773438-9.757813-20.652344-6.257813-4.707031-14.023437-7.097656-23.078125-7.097656-7.101562 0-13.683594 1.308594-19.5625 3.886719-6.558594 2.871093-9.882812 6.652343-9.882812 11.238281 0 2.195312.730468 4.582031 2.171874 7.089844 1.699219 2.957031 3.832032 4.457031 6.335938 4.457031.648438 0 1.3125 0 7.425781-2.769531 3.402344-1.539063 7.292969-2.320313 11.570313-2.320313 6.144531 0 13.195312 1.214844 13.195312 10.691407v.324218h-3.605468c-27.113282 0-40.863282 8.640625-40.863282 25.679688 0 7.953125 2.75 14.074218 8.171875 18.195312 5.210938 3.964844 11.472657 5.972656 18.609375 5.972656 8.390625 0 15.875-3.472656 22.296875-10.335937 1.289063 2.664063 3.195313 4.972656 5.707031 6.898437 3.785157 2.90625 8.527344 4.382813 14.101563 4.382813 10.179687 0 17.988281-4.472656 23.207031-13.289063 4.976563-8.390624 7.5-19.15625 7.5-31.984374 0-20.058594-5.714844-36.054688-16.980468-47.542969zm-41.550782 69.738281c-2.976562 2.78125-6.183594 4.132812-9.796875 4.132812-1.945312 0-3.414062-.527343-4.492187-1.617187-1.085938-1.089844-1.613282-2.703125-1.613282-4.929687 0-2.410157 0-9.746094 18.078126-9.746094h2.171874v3.339844c0 3.199218-1.421874 6.085937-4.347656 8.820312zm0 0"/><path d="m66.105469 153.820312c-5.523438 0-10 4.480469-10 10 0 5.523438 4.476562 10 10 10h.023437c5.523438 0 9.988282-4.476562 9.988282-10 0-5.519531-4.488282-10-10.011719-10zm0 0"/><path d="m385.480469 108.523438c-3.675781 0-7.320313.15625-10.917969.46875v-67.351563c0-11.679687-4.835938-22.25-12.605469-29.820313-.121093-.125-.246093-.253906-.375-.375-7.773437-7.378906-17.953125-11.445312-28.660156-11.445312h-291.28125c-10.710937 0-20.886719 4.066406-28.664063 11.445312-.128906.125-.253906.25-.375.375-7.769531 7.570313-12.601562 18.140626-12.601562 29.820313v161.761719c0 10.492187 3.902344 20.089844 10.328125 27.417968.144531.183594.292969.363282.453125.539063 2.96875 3.273437 6.414062 6.023437 10.183594 8.175781 6.09375 3.503906 13.152344 5.507813 20.675781 5.507813h217.714844c5.113281 65.105469 59.730469 116.519531 126.125 116.519531 69.761719-.003906 126.519531-56.757812 126.519531-126.519531s-56.757812-126.519531-126.519531-126.519531zm-132.148438-13.785157-49.570312 43.707031c-4.699219 4.144532-10.589844 6.214844-16.480469 6.214844-4.511719 0-9.019531-1.210937-12.996094-3.640625-.242187-.148437-.484375-.300781-.722656-.460937-.402344-.261719-.792969-.539063-1.179688-.828125-.539062-.402344-1.070312-.832031-1.582031-1.285157l-49.570312-43.707031c-.003907 0-.003907 0-.003907 0l-84.203124-74.242187c1.488281-.324219 3.03125-.496094 4.617187-.496094h291.28125c1.582031 0 3.128906.171875 4.613281.496094l-84.164062 74.207031c-.011719.015625-.027344.023437-.039063.035156zm99.65625-61.203125c1.015625 2.503906 1.574219 5.242188 1.574219 8.105469v70.6875c-19.84375 4.96875-37.648438 14.519531-52.363281 27.386719l-28.542969-36.230469zm-311.648437 191.503906c-.015625 0-.03125 0-.042969 0-.085937 0-.171875-.003906-.257813-.003906-.015624 0-.027343-.003906-.046874-.003906-3.039063-.089844-6.003907-.824219-8.707032-2.121094l15.621094-19.824218c3.417969-4.339844 2.671875-10.625-1.667969-14.046876-4.335937-3.414062-10.625-2.667968-14.042969 1.667969l-12.039062 15.285157c-.101562-.847657-.15625-1.710938-.15625-2.589844v-161.761719c0-2.863281.558594-5.601563 1.574219-8.105469l79.332031 69.949219-16.78125 21.300781c-3.417969 4.339844-2.671875 10.625 1.667969 14.042969 4.339843 3.417969 10.625 2.675781 14.042969-1.664063l16.09375-20.433593 41.644531 36.71875c14.6875 12.949219 35.851562 14.667969 52.261719 5.152343 2.507812-1.453124 4.90625-3.171874 7.152343-5.152343l41.644531-36.71875 29.488282 37.433593c-6.953125 8.382813-12.832032 17.660157-17.445313 27.617188-.019531.039062-.035156.078125-.054687.117188-.03125.074218-.066406.144531-.101563.21875-6.195312 13.441406-9.992187 27.941406-11.164062 42.921874h-217.714844c-.101563.003907-.199219 0-.300781 0zm344.140625 116.519532c-58.734375 0-106.519531-47.78125-106.519531-106.519532 0-.214843.003906-.429687.003906-.644531 0-.070312 0-.144531 0-.214843.003906-.148438.003906-.292969.003906-.441407.003906-.070312.003906-.140625.003906-.210937 0-.011719 0-.019532 0-.027344.003906-.140625.003906-.285156.007813-.425781 0-.066407.003906-.136719.003906-.203125 0-.011719 0-.023438 0-.039063.003906-.136719.007813-.273437.007813-.410156.003906-.0625.003906-.121094.007812-.183594 0-.027343 0-.058593 0-.085937.003906-.136719.007812-.277344.011719-.417969.003906-.035156.003906-.074219.003906-.109375 0-.046875.003906-.089844.003906-.136719.003907-.160156.011719-.320312.015625-.480469 0-.007812.003906-.019531.003906-.027343 0-.042969 0-.085938.003907-.132813.007812-.191406.015625-.382812.023437-.574218 0-.015626 0-.035157.003906-.050782 2.527344-56.507812 49.289063-101.699218 106.410157-101.699218 58.734375 0 106.519531 47.78125 106.519531 106.515624 0 58.738282-47.785156 106.519532-106.519531 106.519532zm0 0"/></svg>