<svg width="18" height="18" viewBox="0 0 18 18" fill="#fff" xmlns="http://www.w3.org/2000/svg">
<path fill-rule="evenodd" clip-rule="evenodd" d="M9.99998 7.74435H8.04058L7.52495 10.3304H9.48435L9.99998 7.74435ZM12.9985 6.70516L12.8954 7.30012C12.869 7.45349 12.8068 7.56587 12.709 7.63726C12.6112 7.70866 12.4618 7.74435 12.2608 7.74435H11.1661L10.6504 10.3304H12.0704C12.2238 10.3304 12.3335 10.3741 12.3996 10.4613C12.4657 10.5486 12.4829 10.7006 12.4512 10.9175L12.3798 11.3696H10.4997L9.83336 14.7252H9.19081C9.12206 14.7252 9.05859 14.7093 9.00042 14.6776C8.94225 14.6459 8.89333 14.6036 8.85366 14.5507C8.814 14.4978 8.78623 14.4343 8.77037 14.3603C8.7545 14.2862 8.7545 14.2043 8.77037 14.1144L9.3336 11.3696H7.3742L6.81097 14.1858C6.77924 14.3814 6.70256 14.5203 6.58092 14.6022C6.45929 14.6842 6.32179 14.7252 6.16842 14.7252H5.5338L6.20808 11.3696H5.0499C4.90182 11.3696 4.79473 11.326 4.72862 11.2387C4.66251 11.1515 4.64533 10.9994 4.67706 10.7826L4.74052 10.3304H6.35881L6.87444 7.74435H5.03403L5.13716 7.15733C5.1636 7.00396 5.22574 6.89026 5.32358 6.81622C5.42142 6.74218 5.57082 6.70516 5.77178 6.70516H7.02516L7.59632 3.86523C7.62805 3.70657 7.70077 3.58229 7.81447 3.49239C7.92817 3.40248 8.06435 3.35753 8.22301 3.35753H8.85763L8.19128 6.70516H10.1507L10.817 3.35753H11.4437C11.5971 3.35753 11.7174 3.40777 11.8047 3.50825C11.8919 3.60873 11.9223 3.73566 11.8959 3.88902L11.3168 6.70516H12.9985Z" fill="white"/>
</svg>
