<svg width="18" height="18" viewBox="0 0 18 18" fill="none" xmlns="http://www.w3.org/2000/svg">
<path fill-rule="evenodd" clip-rule="evenodd" d="M12.5396 8.67185C12.7502 8.67185 12.929 8.74187 13.0764 8.882C13.2238 9.02213 13.2977 9.19228 13.2976 9.39241V13.7161C13.2976 13.9162 13.2238 14.0864 13.0766 14.2266C12.9292 14.3667 12.7504 14.4367 12.5398 14.4367H4.96277C4.75236 14.4367 4.57342 14.3666 4.42607 14.2266C4.27875 14.0864 4.20508 13.9162 4.20508 13.7161V9.39249C4.20508 9.19221 4.27872 9.02202 4.42607 8.882C4.57342 8.74187 4.75236 8.67185 4.96277 8.67185H5.21531V7.23056C5.21531 6.30977 5.5625 5.5192 6.25711 4.85861C6.9516 4.19805 7.78299 3.86775 8.75129 3.86775C9.7196 3.86775 10.5508 4.19805 11.2454 4.85863C11.94 5.5192 12.2872 6.30979 12.2872 7.23056V8.67185H12.5396ZM6.73074 8.67185H10.7718V7.23056C10.7718 6.70013 10.5745 6.24719 10.18 5.87197C9.78525 5.49664 9.30921 5.30905 8.75136 5.30905C8.19357 5.30905 7.71741 5.49666 7.32272 5.87197C6.92809 6.24722 6.73074 6.70013 6.73074 7.23056V8.67185Z" fill="#AB9BA9"/>
</svg>
