<svg width="11" height="11" viewBox="0 0 11 11" fill="none" xmlns="http://www.w3.org/2000/svg">
<path fill-rule="evenodd" clip-rule="evenodd" d="M5.43911 8.41947C5.43911 8.41947 3.2553 10.2761 2.6895 9.86503C2.12371 9.45395 3.21463 6.8033 3.21463 6.8033C3.21463 6.8033 0.78002 5.28169 0.990155 4.63497C1.20029 3.98824 4.06431 4.18827 4.06431 4.18827C4.06431 4.18827 4.75171 1.40261 5.43911 1.40261C6.12651 1.40261 6.81391 4.18827 6.81391 4.18827C6.81391 4.18827 9.67344 3.97442 9.88807 4.63497C10.1027 5.29551 7.66359 6.8033 7.66359 6.8033C7.66359 6.8033 8.73441 9.46856 8.18872 9.86503C7.64303 10.2615 5.43911 8.41947 5.43911 8.41947Z" stroke="#979797"/>
</svg>
